<svg xmlns="http://www.w3.org/2000/svg" viewBox="0 0 4000 4000" fill-rule="evenodd" clip-rule="evenodd" stroke-linejoin="round" stroke-miterlimit="2"><path fill="#fff" d="M0 0h4000v4000H0z"/><path d="M1266.28 1635.96c-55.022 72.013-129.304 126.099-212.279 161.851-88.753 38.242-186.586 56.487-278.582 53.824-18.189 0-32.957-14.768-32.957-32.957 0-18.19 14.768-32.958 32.957-32.958 81.605-2.362 167.541-22.965 243.994-61.74 72.774-36.909 136.143-91.203 177.853-162.19 10.922-18.653 19.565-38.532 26.799-58.984 7.336-20.74 12.589-42.213 16.583-63.909 1.326-7.255 2.898-41.129 6.316-54.878 5.234-21.051 18.317-31.647 25.231-36.695 14.173-10.347 29.013-11.112 42.97-9.119 11.16 1.593 38.637 12.401 48.996 49.798 5.003 18.061 9.384 65.379 12.337 81.392l24.78 179.686 70.291 585.776c24.275 220.76 48.363 428.753 55.04 640.147 4.467 141.393-.077 284.097-10.916 432.547-9.122 112.813-35.411 234.366-91.555 335.292-41.05 73.791-96.67 137.386-170.866 180.907-151.376 87.441-331.689 55.572-458.288-48.889-97.106-80.126-159.842-199.465-155.427-331.181 1.026-30.618 4.758-62.008 13.331-93.889 12.539-56.304 47.992-143.284 96.601-198.808 32.216-36.798 72.712-56.714 116.359-62.805 6.6-.298 13.21.25 19.67 1.632 65.09 6.473 83.16 50.625 92.538 89.657 10.29 42.828-24.552 110.553-74.221 157.738-36.083 26.986-85.506 23.65-117.634-5.604-9.463 18.143-16.94 35.732-22.107 50.348-31.694 117.502 23.969 225.973 110.811 289.985 85.018 62.666 202.353 81.547 295.959 19.156 60.13-39.382 97.911-100.048 123.577-166.569 27.943-72.424 39.918-152.843 43.204-228.056 10.049-179.541 5.896-350.017-1.206-520.449-7.18-172.319-17.388-344.627-31.292-525.542-7.407-105.013-18.381-231.498-26.254-354.131-5.402-84.154-9.103-166.32-11.244-238.55l-1.369-21.833zM575.351 3719.03H350.554V338.15h1689.48v137.121H487.674v3106.63h87.676v137.121zm970.422-137.121h1966.55V475.279h-1029.77V338.158h1166.89v3380.88h-2103.68v-137.121zm619.916-3251.81c-42.881-40.688-96.825-109.788-138.901-151.064-16.432-16.12-32.242-30.818-51.429-44.947-15.951-6.648-10.991-32.563-7.954-40.976 3.037-8.412 14.816-28.857 30.767-22.209l269.195 64.795 233.973 30.561c21.342 1.327 25.432 12.54 29.521 26.541 3.57 12.222 5.484 32.376-10.865 37.982L2357.35 340.184c-5.349 115.965-13.689 230.737-16.84 345.529-5.355 195.124-1.4 389.062-8.183 584.123-4.811 138.325-12.258 277.074-21.466 417.233-13.644 143.946-29.195 291.513-47.469 439.889 25.158-47.156 54.988-92.399 89.287-134.163 75.189-91.55 172.468-165.482 290.092-207.428 146.692-52.578 298.953-44.304 419.996 21.101 117.341 63.404 206.427 182.076 234.243 361.286 6.564 40.581 9.636 79.847 10.26 119.15.625 39.345-2.015 78.617-6.999 119.296-10.531 82.401-31.065 161.648-63.841 233.713-34.616 76.112-82.219 143.993-137.086 202.366-115.516 122.899-266.082 203.757-432.948 218.774-75.759 6.915-154.337 2-225.831-23.655-72.324-25.953-138.473-70.558-187.449-143.965-36.079-53.871-61.73-114.76-77.614-179.021-19.139 108.782-39.448 216.082-60.325 320.916 28.729 16.859 59.888 36.989 90.526 55.607 33.075 20.099 77.596 56.675 98.559 69.544 11.874 4.945 7.347 20.028 4.567 26.703-2.834 6.806-10.613 21.273-22.487 16.328-13.86-3.329-227.901-11.777-278.259-14.38-65.586-3.389-219.858 14.415-256.645 20.652-11.966 4.719-20.661-8.966-23.353-15.794-2.693-6.828-5.713-22.851 6.254-27.569 58.427-39.028 110.396-86.565 154.665-113.78 19.41-11.933 40.084-22.444 63.523-34.342 24.373-163.027 45.974-332.183 66.723-503.247 34.299-282.783 64.591-570.645 84.376-845.509 34.888-323.289 67.745-639.346 72.249-959.582 1.774-126.078-4.976-252.324-10.186-379.86zm127.845 2001.97c29.862-93.343 79.806-185.921 148.443-262.791 64.132-71.825 145.353-129.075 242.329-159.042 108.235-33.254 219.006-26.431 304.503 25.377 76.873 46.582 128.684 132.002 141.042 253.596 3.087 32.425 3.441 63.63 1.896 94.738-1.55 31.2-5.812 62.156-11.876 94.121-11.847 64.258-34.19 124.242-60.307 180.772-26.99 58.42-58.72 113.162-98.484 160.284-81.753 96.882-189.352 166.362-313.791 185.616-53.58 8.22-109.753 9.517-161.698-5.688-46.386-13.577-89.733-38.941-123.181-83.239-48.651-64.669-76.402-144.773-86.681-227.87-10.729-86.726-3.722-176.376 17.805-255.874zm-1181.18-1311.55c29.601 27.397 78.239 33.258 124.597 21.109 121.781-31.914 134.341-195.321 43.751-268.555-121.517-98.235-218.063 123.114-204.791 184.242 3.836 17.671 13.449 41.922 36.443 63.204z" fill="#0600aa"/><defs><linearGradient id="_Linear1" x1="0" y1="0" x2="1" y2="0" gradientUnits="userSpaceOnUse" gradientTransform="rotate(45.262 -230.289 589.512) scale(3192.46)"><stop offset="0" stop-color="#0600aa"/><stop offset="1" stop-color="#0385ff"/></linearGradient></defs></svg>