<?xml version="1.0" encoding="UTF-8" standalone="no"?>
<!DOCTYPE svg PUBLIC "-//W3C//DTD SVG 1.1//EN" "http://www.w3.org/Graphics/SVG/1.1/DTD/svg11.dtd">
<svg width="100%" height="100%" viewBox="0 0 4000 4000" version="1.1" xmlns="http://www.w3.org/2000/svg" xmlns:xlink="http://www.w3.org/1999/xlink" xml:space="preserve" xmlns:serif="http://www.serif.com/" style="fill-rule:evenodd;clip-rule:evenodd;stroke-linejoin:round;stroke-miterlimit:2;">
    <g transform="matrix(4,0,0,4,0,0)">
        <path d="M316.57,408.99C302.814,426.993 284.244,440.515 263.5,449.453C241.312,459.013 216.854,463.574 193.855,462.908C189.307,462.908 185.615,459.217 185.615,454.669C185.615,450.122 189.307,446.43 193.855,446.43C214.256,445.839 235.74,440.688 254.853,430.995C273.047,421.767 288.889,408.194 299.316,390.447C302.047,385.784 304.207,380.814 306.016,375.701C307.85,370.516 309.163,365.148 310.162,359.724C310.493,357.91 310.886,349.442 311.741,346.004C313.049,340.742 316.32,338.093 318.049,336.831C321.592,334.244 325.302,334.053 328.791,334.551C331.581,334.949 338.45,337.651 341.04,347C342.291,351.516 343.386,363.345 344.124,367.348L350.319,412.27L367.892,558.714C373.961,613.904 379.983,665.902 381.652,718.751C382.769,754.099 381.633,789.775 378.923,826.888C376.643,855.091 370.07,885.479 356.034,910.71C345.772,929.158 331.867,945.057 313.318,955.937C275.474,977.797 230.395,969.83 198.746,943.715C174.469,923.684 158.785,893.849 159.889,860.92C160.145,853.265 161.078,845.418 163.222,837.448C166.356,823.371 175.22,801.626 187.372,787.746C195.426,778.546 205.55,773.567 216.462,772.044C218.112,771.97 219.764,772.107 221.379,772.452C237.652,774.071 242.169,785.109 244.514,794.866C247.086,805.573 238.376,822.505 225.959,834.301C216.938,841.048 204.582,840.213 196.55,832.9C194.184,837.436 192.315,841.833 191.023,845.487C183.1,874.863 197.015,901.98 218.726,917.983C239.98,933.65 269.314,938.37 292.716,922.772C307.748,912.927 317.193,897.76 323.61,881.13C330.596,863.024 333.589,842.919 334.411,824.116C336.923,779.231 335.885,736.612 334.11,694.004C332.315,650.924 329.762,607.847 326.286,562.618C324.435,536.365 321.691,504.744 319.723,474.085C318.372,453.047 317.447,432.505 316.912,414.448L316.57,408.99ZM143.837,929.758L87.638,929.758L87.638,84.539L510.009,84.539L510.009,118.819L121.918,118.819L121.918,895.478L143.837,895.478L143.837,929.758ZM386.443,895.478L878.082,895.478L878.082,118.819L620.639,118.819L620.639,84.539L912.362,84.539L912.362,929.758L386.443,929.758L386.443,895.478ZM541.422,82.526C530.702,72.353 517.216,55.078 506.697,44.759C502.589,40.73 498.636,37.055 493.84,33.523C489.852,31.861 491.092,25.382 491.851,23.279C492.61,21.176 495.555,16.065 499.543,17.727L566.842,33.925L625.335,41.566C630.67,41.897 631.693,44.701 632.715,48.201C633.607,51.256 634.086,56.295 629.999,57.696L589.337,85.047C588,114.038 585.915,142.731 585.127,171.429C583.788,220.21 584.777,268.695 583.081,317.46C581.879,352.041 580.017,386.728 577.715,421.768C574.304,457.754 570.416,494.646 565.848,531.74C572.137,519.951 579.595,508.641 588.17,498.2C606.967,475.312 631.286,456.829 660.693,446.343C697.366,433.198 735.431,435.267 765.692,451.618C795.027,467.469 817.298,497.137 824.252,541.939C825.893,552.085 826.661,561.901 826.817,571.727C826.974,581.563 826.314,591.381 825.067,601.551C822.435,622.151 817.301,641.963 809.107,659.979C800.453,679.007 788.553,695.977 774.836,710.571C745.957,741.295 708.315,761.51 666.599,765.264C647.659,766.993 628.015,765.764 610.141,759.35C592.06,752.862 575.523,741.711 563.279,723.359C554.259,709.891 547.846,694.669 543.875,678.604C539.091,705.799 534.013,732.624 528.794,758.833C535.976,763.048 543.766,768.08 551.425,772.735C559.694,777.759 570.825,786.903 576.065,790.12C579.034,791.357 577.902,795.128 577.207,796.796C576.499,798.498 574.554,802.114 571.585,800.878C568.12,800.046 514.61,797.934 502.02,797.283C485.624,796.436 447.056,800.887 437.859,802.446C434.868,803.626 432.694,800.205 432.021,798.498C431.348,796.791 430.593,792.785 433.584,791.605C448.191,781.848 461.184,769.964 472.251,763.16C477.103,760.177 482.272,757.549 488.132,754.575C494.225,713.818 499.625,671.529 504.812,628.763C513.387,558.067 520.96,486.102 525.906,417.386C534.628,336.564 542.842,257.549 543.969,177.49C544.412,145.971 542.724,114.409 541.422,82.526ZM573.383,583.017C580.849,559.681 593.335,536.537 610.494,517.319C626.527,499.363 646.832,485.051 671.076,477.559C698.135,469.245 725.828,470.951 747.202,483.903C766.42,495.549 779.373,516.904 782.462,547.302C783.234,555.409 783.323,563.21 782.936,570.987C782.549,578.787 781.484,586.526 779.967,594.517C777.006,610.582 771.42,625.578 764.891,639.71C758.143,654.315 750.211,668.001 740.27,679.781C719.832,704.002 692.932,721.372 661.822,726.185C648.427,728.24 634.384,728.564 621.398,724.763C609.801,721.369 598.964,715.028 590.602,703.953C578.44,687.786 571.502,667.76 568.932,646.986C566.25,625.304 568.002,602.892 573.383,583.017ZM278.089,255.13C285.489,261.98 297.648,263.445 309.238,260.408C339.683,252.429 342.823,211.577 320.176,193.269C289.797,168.71 265.66,224.047 268.978,239.329C269.937,243.747 272.34,249.81 278.089,255.13Z"/>
    </g>
</svg>
